# xmcd
#
# Track frame offsets:
#	150
#	15010
#	29095
#	43500
#	57690
#	72677
#	88232
#	103450
#	118000
#	131950
#	145967
#	160792
#	175215
#	191117
#	205540
#	220090
#	233452
#	246930
#	260567
#	272380
#	285075
#	298457
#	313420
#
# Disc length: 4368 seconds
#
# Revision: 1
# Processed by: cddbd v1.5.1PL0 Copyright (c) Steve Scherf et al.
# Submitted via: EasyCDDAExtractor 6.0.0.1
#
DISCID=6b110e17
DTITLE=Various Artist - Dallas Alley Drag
DYEAR=2000
DGENRE=General Blues
TTITLE0=Billiken Johnson w/ Neal Roberts - Frisco Blues
TTITLE1=Whistlin' Alex Moore - Heart Wrecked Blues
TTITLE2=Hattie Hudson - Doggone My Good Luck Soul
TTITLE3=Texas Bill Day and Billiken Johnson - Elm Street Blues
TTITLE4=Ida Mae Mack - When You Lose Your Daddy
TTITLE5=Ida Mae Mack - Elm Street Blues
TTITLE6=Texas Bill Day - Goin Back To My Baby
TTITLE7=Whistlin' Alex Moore - Blue Bloomer Blues
TTITLE8=Texas Bill Day - Good Mornin Blues
TTITLE9=Whistlin' Alex Moore - They May Not Be My Toes
TTITLE10=Jack Ranger - T.P. Window Blues
TTITLE11=Texas Bill Day and Billiken Johnson - Billiken's Weary Blues
TTITLE12=Bessie Tucker - Fort Worth And Denver Blues
TTITLE13=Bessie Tucker - My Man Has Quit Me
TTITLE14=Billiken Johnson and Fred Adams - Interurban Blues
TTITLE15=Whistlin' Alex Moore - West Texas Woman
TTITLE16=Bobby Cadillac - Carbolic Acid Blues
TTITLE17=Texas Bill Day - Burn The Trestle Down
TTITLE18=Billiken Johnson w/ Neal Roberts - Wild Jack Blues
TTITLE19=Whistlin' Alex Moore - Ice Pick Blues
TTITLE20=Bessie Tucker - The Katy
TTITLE21=Jack Ranger - Thieving Blues
TTITLE22=Billiken Johnson and Fred Adams - Sun Beam Blues
EXTD=
EXTT0=
EXTT1=
EXTT2=
EXTT3=
EXTT4=
EXTT5=
EXTT6=
EXTT7=
EXTT8=
EXTT9=
EXTT10=
EXTT11=
EXTT12=
EXTT13=
EXTT14=
EXTT15=
EXTT16=
EXTT17=
EXTT18=
EXTT19=
EXTT20=
EXTT21=
EXTT22=
PLAYORDER=
